<?xml version="1.0" standalone="no"?>
<!DOCTYPE svg PUBLIC "-//W3C//DTD SVG 1.0//EN" "http://www.w3.org/TR/2001/REC-SVG-20010904/DTD/svg10.dtd">
<svg xmlns="http://www.w3.org/2000/svg" xmlns:xlink="http://www.w3.org/1999/xlink" id="body_1" width="48" height="48">

<defs>
    <linearGradient transform="matrix(1 0 0 1 -0 -726)"  id="1" x1="32" y1="735.083" x2="32" y2="780.676">
        <stop stop-color="#1A6DFF" offset="0%"/>
        <stop stop-color="#C822FF" offset="100%"/>
    </linearGradient>
    <linearGradient transform="matrix(1 0 0 1 0 0)"  id="230" x1="30.5" y1="18.001" x2="30.5" y2="46">
        <stop stop-color="#6DC7FF" offset="0%"/>
        <stop stop-color="#E6ABFF" offset="100%"/>
    </linearGradient>
</defs>

<g transform="matrix(0.75 0 0 0.75 0 0)">
    <path d="M50 55L14 55C 11.243 55 9 52.757 9 50L9 50L9 14C 9 11.243 11.243 9 14 9L14 9L50 9C 52.757 9 55 11.243 55 14L55 14L55 50C 55 52.757 52.757 55 50 55zM14 11C 12.346 11 11 12.346 11 14L11 14L11 50C 11 51.654 12.346 53 14 53L14 53L50 53C 51.654 53 53 51.654 53 50L53 50L53 14C 53 12.346 51.654 11 50 11L50 11L14 11z" stroke="none" fill="url(#1)" />
    <path d="M42 34L42 38L42 38.021L41.998 38.021C 41.986 40.768 39.749 43 37 43L37 43L36.5 43C 35.513 43 34.567 42.58 33.904 41.848C 33.242 41.117 32.919 40.13 33.017 39.142998C 33.195 37.38 34.787 36 36.643 36L36.643 36L38 36C 39.103 36 40 35.103 40 34L40 34L40 24.205L28 26.455L28 37L28 41C 28 43.757 25.757 46 23 46L23 46L22.5 46C 21.513 46 20.567 45.58 19.904 44.848C 19.241999 44.117 18.918999 43.13 19.017 42.142998C 19.195 40.38 20.787 39 22.643 39L22.643 39L24 39C 25.103 39 26 38.103 26 37L26 37L26 22.353C 26 21.390001 26.687 20.563 27.633 20.387001L27.633 20.387001L40.224 18.027C 40.663 17.944 41.114998 18.060001 41.458 18.346C 41.803 18.632 42 19.053 42 19.5L42 19.5L42 34z" stroke="none" fill="url(#230)" />
</g>
</svg>