<?xml version="1.0" standalone="no"?>
<!DOCTYPE svg PUBLIC "-//W3C//DTD SVG 1.0//EN" "http://www.w3.org/TR/2001/REC-SVG-20010904/DTD/svg10.dtd">
<svg xmlns="http://www.w3.org/2000/svg" xmlns:xlink="http://www.w3.org/1999/xlink" id="body_1" width="48" height="36">

<g transform="matrix(0.24 0 0 0.24 6 -0)">
	<g>
        <path d="M27.6 99.9C 27.6 93.8 32.5 88.9 38.6 88.9L38.6 88.9L92.5 88.9C 98.6 88.9 103.5 93.8 103.5 99.9C 103.5 106 98.6 110.9 92.5 110.9L92.5 110.9L38.7 110.9C 32.6 111 27.6 106 27.6 99.9zM38.7 105.2C 41.600002 105.2 44 102.799995 44 99.899994C 44 96.99999 41.6 94.59999 38.7 94.59999C 35.8 94.59999 33.4 96.99999 33.4 99.899994C 33.4 102.799995 35.7 105.2 38.7 105.2zM92.6 105.2C 95.5 105.2 97.9 102.799995 97.9 99.899994C 97.9 96.99999 95.5 94.59999 92.6 94.59999C 89.7 94.59999 87.299995 96.99999 87.299995 99.899994C 87.299995 102.799995 89.6 105.2 92.6 105.2z" stroke="none" fill="#E53935" fill-rule="nonzero" />
        <path d="M40 61.8C 43.6 56.899998 50.5 55.8 55.4 59.399998L55.4 59.399998L99.1 91C 104 94.6 105.1 101.5 101.5 106.4C 97.9 111.3 91 112.4 86.1 108.8L86.1 108.8L42.5 77.2C 37.6 73.6 36.5 66.7 40 61.8zM45.8 72.5C 48.2 74.2 51.5 73.7 53.2 71.3C 54.9 68.9 54.4 65.600006 52 63.9C 49.6 62.199997 46.3 62.7 44.6 65.1C 42.9 67.5 43.5 70.8 45.8 72.5zM89.5 104.2C 91.9 105.899994 95.2 105.399994 96.9 103C 98.6 100.6 98.1 97.3 95.700005 95.6C 93.3 93.9 90.00001 94.4 88.3 96.799995C 86.6 99.19999 87.1 102.5 89.5 104.2z" stroke="none" fill="#FBC02D" fill-rule="nonzero" />
        <path d="M72.5 38.2C 78.3 36.3 84.5 39.5 86.4 45.3L86.4 45.3L103.100006 96.6C 105.00001 102.4 101.8 108.6 96.00001 110.5C 90.200005 112.4 84.00001 109.2 82.100006 103.4L82.100006 103.4L65.4 52.1C 63.6 46.3 66.7 40.1 72.5 38.2zM70.9 50.3C 71.8 53.1 74.8 54.6 77.6 53.7C 80.4 52.8 81.9 49.8 81 47C 80.1 44.2 77.1 42.7 74.3 43.6C 71.5 44.5 70 47.5 70.9 50.3zM87.5 101.6C 88.4 104.4 91.4 105.9 94.2 105C 97 104.1 98.5 101.1 97.6 98.3C 96.7 95.5 93.7 94 90.9 94.9C 88.1 95.8 86.6 98.8 87.5 101.6z" stroke="none" fill="#4CAF50" fill-rule="nonzero" />
        <path d="M113.7 38.5C 119.5 40.5 122.5 46.8 120.5 52.5L120.5 52.5L103 103.5C 101 109.3 94.7 112.3 89 110.3C 83.2 108.3 80.2 102 82.2 96.3L82.2 96.3L99.799995 45.300003C 101.7 39.6 108 36.6 113.7 38.5zM105.1 47.2C 104.1 50 105.6 53 108.4 53.9C 111.200005 54.9 114.200005 53.4 115.1 50.600002C 116.1 47.800003 114.6 44.800003 111.799995 43.9C 108.99999 43 106.1 44.5 105.1 47.2zM87.6 98.2C 86.6 101 88.1 104 90.9 104.899994C 93.700005 105.899994 96.700005 104.399994 97.6 101.59999C 98.6 98.79999 97.1 95.79999 94.299995 94.899994C 91.5 94 88.5 95.4 87.6 98.2z" stroke="none" fill="#1E88E5" fill-rule="nonzero" />
	</g>
</g>
</svg>