<?xml version="1.0" standalone="no"?>
<!DOCTYPE svg PUBLIC "-//W3C//DTD SVG 1.0//EN" "http://www.w3.org/TR/2001/REC-SVG-20010904/DTD/svg10.dtd">
<svg xmlns="http://www.w3.org/2000/svg" xmlns:xlink="http://www.w3.org/1999/xlink" id="body_1" width="48" height="48">

<g transform="matrix(2 0 0 2 0 0)">
    <path d="M12 4.29C 6.5 4.29 2 7.29 2 11C 2 14.28 5.56 17 10.24 17.58L10.24 17.58L10.24 19.71L13.65 19.71L13.65 17.59C 14.5 17.5 15.29 17.34 16.04 17.11L16.04 17.11L17.42 19.71L21.28 19.71L18.96 15.8C 20.83 14.58 22 12.87 22 11C 22 7.29 17.5 4.29 12 4.29zM13.53 6.91C 17.73 6.91 20.83 8.31 20.83 11.5C 20.83 13.21 19.91 14.41 18.41 15.15C 18.32 15.1 18.24 15.05 18.19 15C 17.83 14.84 17.23 14.66 17.23 14.66C 17.23 14.66 20.21 14.44 20.21 11.47C 20.21 8.5 17.09 8.45 17.09 8.45L17.09 8.45L10.24 8.45L10.24 15.61C 7.69 14.87 5.93 13.3 5.93 11.5C 5.93 8.96 9.33 6.91 13.53 6.91zM13.68 10.89L15.75 10.89C 15.75 10.89 16.7 10.84 16.7 11.83C 16.7 12.8 15.75 12.8 15.75 12.8L15.75 12.8L13.68 12.8L13.68 10.89zM13.65 15.3L14.57 15.3C 14.75 15.3 14.84 15.35 15 15.5C 15.13 15.6 15.27 15.79 15.39 15.96C 14.84 16.03 14.26 16.06 13.65 16.06L13.65 16.06L13.65 15.3z" stroke="none" fill="#000000" fill-rule="nonzero" />
</g>
</svg>